# xmcd
#
# Track frame offsets: 
#        150
#        11382
#        22412
#        36885
#        50750
#        72555
#        82655
#        92205
#        111765
#        124382
#        136295
#        151537
#        162422
#        176820
#        187450
#
# Disc length: 2697 seconds
#
# Revision: 1
# Processed by: cddbd v1.5.1PL0 Copyright (c) Steve Scherf et al.
# Submitted via: ExactAudioCopy v0.95a5
#
DISCID=d30a870f
DTITLE=Vatten - Diggin' the Roots
DYEAR=1989
DGENRE=
TTITLE0=You'll Never Know
TTITLE1=Looking Back
TTITLE2=The Status Quo
TTITLE3=Crossroads
TTITLE4=Pretty Woman
TTITLE5=The Stumble
TTITLE6=First Sight Phenomenon
TTITLE7=Black Cat Moan
TTITLE8=Walkin' By Myself
TTITLE9=Don't Try That Jive On Me
TTITLE10=Prisons On The Road
TTITLE11=Little Girl
TTITLE12=Baby, Baby, Baby
TTITLE13=Ernvik Boogie
TTITLE14=Killing Floor
EXTD=
EXTT0=
EXTT1=
EXTT2=
EXTT3=
EXTT4=
EXTT5=
EXTT6=
EXTT7=
EXTT8=
EXTT9=
EXTT10=
EXTT11=
EXTT12=
EXTT13=
EXTT14=
PLAYORDER=
